<?xml version="1.0" encoding="utf-8"?><svg xmlns="http://www.w3.org/2000/svg" xmlns:xlink="http://www.w3.org/1999/xlink"><symbol viewBox="0 0 24 24" id="arrow-down-solid" xmlns="http://www.w3.org/2000/svg"><path fill="currentColor" d="m12 15-5-5h10z"/></symbol><symbol viewBox="0 0 24 24" id="arrow-right-solid" xmlns="http://www.w3.org/2000/svg"><path fill="currentColor" d="M10 17V7l5 5z"/></symbol><symbol viewBox="0 0 24 24" id="close" xmlns="http://www.w3.org/2000/svg"><path fill="currentColor" d="M6.4 19 5 17.6l5.6-5.6L5 6.4 6.4 5l5.6 5.6L17.6 5 19 6.4 13.4 12l5.6 5.6-1.4 1.4-5.6-5.6z"/></symbol><symbol viewBox="0 0 24 24" id="cog" xmlns="http://www.w3.org/2000/svg"><path fill="currentColor" d="m9.25 22-.4-3.2q-.325-.125-.612-.3t-.563-.375L4.7 19.375l-2.75-4.75 2.575-1.95Q4.5 12.5 4.5 12.338v-.675q0-.163.025-.338L1.95 9.375l2.75-4.75 2.975 1.25q.275-.2.575-.375t.6-.3l.4-3.2h5.5l.4 3.2q.325.125.613.3t.562.375l2.975-1.25 2.75 4.75-2.575 1.95q.025.175.025.338v.674q0 .163-.05.338l2.575 1.95-2.75 4.75-2.95-1.25q-.275.2-.575.375t-.6.3l-.4 3.2zM11 20h1.975l.35-2.65q.775-.2 1.438-.587t1.212-.938l2.475 1.025.975-1.7-2.15-1.625q.125-.35.175-.737T17.5 12t-.05-.787-.175-.738l2.15-1.625-.975-1.7-2.475 1.05q-.55-.575-1.212-.962t-1.438-.588L13 4h-1.975l-.35 2.65q-.775.2-1.437.588t-1.213.937L5.55 7.15l-.975 1.7 2.15 1.6q-.125.375-.175.75t-.05.8q0 .4.05.775t.175.75l-2.15 1.625.975 1.7 2.475-1.05q.55.575 1.213.963t1.437.587zm1.05-4.5q1.45 0 2.475-1.025T15.55 12t-1.025-2.475T12.05 8.5q-1.475 0-2.488 1.025T8.55 12t1.013 2.475T12.05 15.5M12 12"/></symbol><symbol viewBox="0 0 24 24" id="devices" xmlns="http://www.w3.org/2000/svg"><path fill="currentColor" d="M2 20v-3h2V6q0-.825.588-1.412T6 4h15v2H6v11h6v3zm13 0q-.425 0-.712-.288T14 19V9q0-.425.288-.712T15 8h6q.425 0 .713.288T22 9v10q0 .425-.288.713T21 20zm1-3h4v-7h-4zm0 0h4z"/></symbol><symbol viewBox="0 0 24 24" id="dock" xmlns="http://www.w3.org/2000/svg"><path fill="currentColor" d="M5 21q-.825 0-1.412-.587T3 19V5q0-.825.588-1.412T5 3h14q.825 0 1.413.588T21 5v14q0 .825-.587 1.413T19 21zm11-2h3V5h-3zm-2 0V5H5v14zm2 0h3z"/></symbol><symbol viewBox="0 0 24 24" fill="none" id="dots-horizontal" xmlns="http://www.w3.org/2000/svg"><path d="M7 12a2 2 0 1 1-4 0 2 2 0 0 1 4 0ZM14 12a2 2 0 1 1-4 0 2 2 0 0 1 4 0ZM21 12a2 2 0 1 1-4 0 2 2 0 0 1 4 0Z" fill="currentColor"/></symbol><symbol fill="currentColor" viewBox="0 0 32 32" xml:space="preserve" id="dots-vertical" xmlns="http://www.w3.org/2000/svg"><path d="M16 10c1.7 0 3-1.3 3-3s-1.3-3-3-3-3 1.3-3 3 1.3 3 3 3zM16 13c-1.7 0-3 1.3-3 3s1.3 3 3 3 3-1.3 3-3-1.3-3-3-3zM16 22c-1.7 0-3 1.3-3 3s1.3 3 3 3 3-1.3 3-3-1.3-3-3-3z"/></symbol><symbol viewBox="0 0 24 24" id="filter" xmlns="http://www.w3.org/2000/svg"><path fill="currentColor" d="M7 6h10l-5.01 6.3zm-2.75-.39C6.27 8.2 10 13 10 13v6c0 .55.45 1 1 1h2c.55 0 1-.45 1-1v-6s3.72-4.8 5.74-7.39A.998.998 0 0 0 18.95 4H5.04c-.83 0-1.3.95-.79 1.61"/></symbol><symbol viewBox="0 0 24 24" id="paint-brush" xmlns="http://www.w3.org/2000/svg"><path fill="currentColor" d="M11 22q-.825 0-1.412-.587T9 20v-4H6q-.825 0-1.412-.587T4 14V7q0-1.65 1.175-2.825T8 3h11q.425 0 .713.288T20 4v10q0 .825-.587 1.413T18 16h-3v4q0 .825-.587 1.413T13 22zM6 10h12V5h-1v3q0 .425-.288.713T16 9t-.712-.288T15 8V5h-1v1q0 .425-.288.713T13 7t-.712-.288T12 6V5H8q-.825 0-1.412.588T6 7zm0 4h12v-2H6zm0 0v-2z"/></symbol><symbol viewBox="0 0 24 24" id="plus" xmlns="http://www.w3.org/2000/svg"><path fill="currentColor" d="M19 12.998h-6v6h-2v-6H5v-2h6v-6h2v6h6z"/></symbol><symbol viewBox="0 0 24 24" id="selector" xmlns="http://www.w3.org/2000/svg"><path fill="currentColor" d="M11 21V11h10v2h-6.6l6.6 6.6-1.4 1.4-6.6-6.6V21zm-4 0v-2h2v2zM5 5H3q0-.825.588-1.412T5 3zm2 0V3h2v2zm4 0V3h2v2zm4 0V3h2v2zm4 0V3q.825 0 1.413.588T21 5zM5 19v2q-.825 0-1.412-.587T3 19zm-2-2v-2h2v2zm0-4v-2h2v2zm0-4V7h2v2zm16 0V7h2v2z"/></symbol></svg>